<svg xmlns:dc="http://purl.org/dc/elements/1.1/" xmlns:cc="http://creativecommons.org/ns#" xmlns:rdf="http://www.w3.org/1999/02/22-rdf-syntax-ns#" xmlns:svg="http://www.w3.org/2000/svg" xmlns="http://www.w3.org/2000/svg" xmlns:sodipodi="http://sodipodi.sourceforge.net/DTD/sodipodi-0.dtd" xmlns:inkscape="http://www.inkscape.org/namespaces/inkscape" version="1.1" x="0px" y="0px" viewBox="0 0 100 125"><g transform="translate(0,-952.36218)"><g transform="translate(2.9980315,955.36021)"><path d="M 13.996063,0 C 10.984252,0 8.007874,2.9763779 8.007874,8.007874 3.011811,8.007874 0,9.992126 0,13.996063 l 0,73.984252 c 0,3.295275 2.6929134,6.023622 5.988189,6.023622 l 74.019685,0 c 4.003937,0 5.988189,-2.019685 5.988189,-8.007874 5.988189,0 8.007874,-2.019685 8.007874,-5.988189 l 0,-73.984252 C 94.003937,2.7283464 91.311023,0 88.015748,0 z m 0,2.019685 74.019685,0 c 2.19685,0 3.968504,1.7716536 3.968504,4.003937 l 0,73.984252 c 0,2.232283 -1.736221,4.003937 -3.968504,4.003937 l -2.019685,0 0,-69.980315 c 0,-3.047244 -3.011811,-6.023622 -5.988189,-6.023622 l -70.015748,0 c 0,-4.003937 2.019685,-6.023622 4.003937,-5.988189 z m -8.007874,7.972441 74.019685,0 c 2.267716,0.141732 3.968504,2.090551 4.003937,4.03937 l 0,13.96063 -82.027559,0 0,-13.996063 c 0,-3.011811 2.019685,-4.003937 4.003937,-4.003937 z m 4.003937,7.015748 c -1.6653544,0 -2.976378,1.346457 -2.976378,3.011811 0,1.629921 1.3110236,2.976378 2.976378,2.976378 1.665354,0 3.011811,-1.346457 3.011811,-2.976378 0,-1.665354 -1.346457,-3.011811 -3.011811,-3.011811 z m 12.011811,0 c -1.665354,0 -3.011811,1.346457 -3.011811,3.011811 0,1.629921 1.346457,2.976378 3.011811,2.976378 1.665354,0 3.011811,-1.346457 3.011811,-2.976378 0,-1.665354 -1.346457,-3.011811 -3.011811,-3.011811 z m -20.019685,13.003937 82.027559,0 c 0,19.311024 0,38.65748 0,57.968504 0,2.232283 -1.771654,4.03937 -4.003937,4.03937 l -74.019685,0 c -2.2322835,0 -4.003937,-1.807087 -4.003937,-4.03937 z M 8.007874,36 l 0,18 67.996063,0 0,-18 -67.996063,0 z m 1.984252,2.019685 63.992126,0 0,13.996063 -63.992126,0 z m -1.984252,21.968504 0,26.007874 36,0 0,-26.007874 -36,0 z m 41.988189,0 0,26.007874 26.007874,0 0,-26.007874 -26.007874,0 z m -40.003937,2.019685 31.996063,0 0,22.003937 -31.996063,0 z m 42.023622,0 21.968504,0 0,22.003937 -21.968504,0 z" style="" fill="#000000" fill-opacity="1" fill-rule="nonzero" stroke="none"/></g></g></svg>