<svg xmlns="http://www.w3.org/2000/svg" xmlns:xlink="http://www.w3.org/1999/xlink" version="1.1" x="0px" y="0px" viewBox="0 0 100 125" enable-background="new 0 0 100 100" xml:space="preserve"><path d="M91.176,45.778c-1.185-1.787-3.174-2.854-5.32-2.854c-1.252,0-2.468,0.367-3.517,1.062c-1.419,0.94-2.388,2.377-2.726,4.046  c-0.029,0.141-0.046,0.282-0.065,0.424l-5.031-3.635c-0.373-0.269-0.865-0.307-1.275-0.098c-0.409,0.209-0.667,0.631-0.667,1.091  v2.611H62.39c-0.314-2.5-1.364-4.812-3.054-6.712c-0.003-0.004-0.007-0.008-0.01-0.012l7.344-7.345l1.926,1.926  c0.325,0.325,0.805,0.441,1.243,0.299c0.438-0.142,0.76-0.517,0.832-0.971l0.937-5.817c0.731,0.532,1.57,0.912,2.483,1.097  c0.421,0.085,0.849,0.128,1.272,0.128c3.017,0,5.642-2.149,6.242-5.109c0.339-1.669,0.007-3.371-0.934-4.789  c-0.94-1.42-2.378-2.389-4.048-2.727c-0.421-0.085-0.85-0.128-1.272-0.128c-3.017,0-5.642,2.149-6.242,5.109  c-0.318,1.565-0.039,3.155,0.772,4.517l-5.967,0.961c-0.454,0.073-0.829,0.395-0.971,0.833c-0.142,0.438-0.025,0.918,0.3,1.243  l1.694,1.695l-7.411,7.412c-1.963-1.487-4.285-2.349-6.749-2.5c-0.084-0.005-0.168-0.01-0.253-0.014V27.425h2.917  c0.46,0,0.881-0.258,1.091-0.667c0.209-0.41,0.172-0.902-0.098-1.275l-3.716-5.144c0.742-0.17,1.456-0.457,2.104-0.886  c1.42-0.941,2.388-2.378,2.726-4.047c0.339-1.669,0.008-3.37-0.933-4.79c-1.186-1.787-3.174-2.854-5.32-2.854  c-1.252,0-2.468,0.367-3.517,1.062c-1.42,0.941-2.389,2.378-2.727,4.047c-0.339,1.669-0.007,3.371,0.934,4.789  c1.035,1.563,2.685,2.575,4.519,2.805l-3.626,5.018c-0.27,0.373-0.307,0.865-0.098,1.275s0.631,0.667,1.091,0.667h2.203v10.233  c-2.324,0.36-4.479,1.363-6.274,2.928c-0.055,0.048-0.11,0.097-0.165,0.146l-7.267-7.266l1.93-1.929  c0.325-0.325,0.441-0.806,0.3-1.243c-0.142-0.438-0.517-0.759-0.972-0.833l-5.943-0.957c0.577-0.75,1.009-1.622,1.207-2.595  c0.339-1.669,0.007-3.371-0.934-4.789c-0.94-1.42-2.378-2.389-4.048-2.727c-0.421-0.085-0.849-0.128-1.272-0.128  c-3.017,0-5.642,2.149-6.242,5.109c-0.339,1.669-0.007,3.371,0.934,4.79c0.94,1.419,2.378,2.388,4.048,2.727  c0.421,0.085,0.85,0.128,1.272,0.128c1.173,0,2.281-0.332,3.24-0.903l0.983,6.102c0.072,0.454,0.395,0.829,0.832,0.971  c0.438,0.141,0.918,0.026,1.243-0.299l1.69-1.69l7.347,7.346c-1.399,1.874-2.235,4.079-2.429,6.42  c-0.014,0.169-0.025,0.338-0.033,0.509H27.074v-2.742c0-0.46-0.258-0.881-0.667-1.091c-0.409-0.209-0.902-0.171-1.275,0.098  l-4.682,3.383c-0.129-0.934-0.46-1.836-0.996-2.645c-1.185-1.788-3.174-2.855-5.32-2.855c-1.252,0-2.468,0.367-3.517,1.062  c-2.93,1.942-3.734,5.906-1.793,8.836c1.186,1.787,3.174,2.854,5.32,2.854c1.252,0,2.468-0.367,3.517-1.062  c1.273-0.844,2.179-2.089,2.597-3.541l4.873,3.522c0.373,0.27,0.866,0.307,1.275,0.098c0.409-0.209,0.667-0.631,0.667-1.091v-2.377  H37.66c0.342,2.212,1.266,4.274,2.705,6.016c0.11,0.134,0.225,0.267,0.343,0.397l-7.201,7.201l-1.787-1.787  c-0.325-0.326-0.805-0.44-1.243-0.299c-0.438,0.142-0.76,0.517-0.832,0.971l-0.966,5.997c-0.793-0.65-1.735-1.101-2.768-1.311  c-0.419-0.085-0.848-0.129-1.275-0.129c-3.016,0-5.641,2.148-6.241,5.109c-0.339,1.67-0.007,3.372,0.934,4.789  c0.94,1.42,2.378,2.389,4.048,2.727c0.421,0.085,0.85,0.128,1.272,0.128c3.017,0,5.642-2.148,6.242-5.109  c0.312-1.536,0.049-3.095-0.725-4.44l6.236-1.005c0.454-0.073,0.829-0.395,0.971-0.833c0.142-0.438,0.025-0.918-0.3-1.243  l-1.833-1.833l7.277-7.277c1.844,1.387,4.01,2.226,6.32,2.441c0.096,0.009,0.191,0.017,0.288,0.024v10.465h-2.333  c-0.46,0-0.881,0.258-1.091,0.667c-0.209,0.41-0.172,0.902,0.098,1.275l3.417,4.73c-0.847,0.153-1.66,0.466-2.388,0.95  c-1.419,0.94-2.388,2.377-2.726,4.046c-0.34,1.668-0.009,3.37,0.933,4.79c1.185,1.787,3.174,2.854,5.32,2.854  c1.252,0,2.468-0.367,3.517-1.062c1.419-0.94,2.388-2.378,2.726-4.046c0.34-1.668,0.009-3.369-0.933-4.79  c-0.895-1.35-2.25-2.287-3.784-2.666l3.473-4.806c0.27-0.373,0.307-0.865,0.098-1.275s-0.631-0.667-1.091-0.667h-2.787V62.391  c2.382-0.299,4.601-1.27,6.457-2.833c0.081-0.068,0.161-0.138,0.241-0.208l7.28,7.281l-1.783,1.783  c-0.325,0.325-0.441,0.806-0.3,1.243c0.142,0.438,0.517,0.759,0.972,0.833l5.914,0.952c-0.598,0.761-1.044,1.653-1.246,2.648  c-0.339,1.67-0.007,3.372,0.934,4.789c0.94,1.42,2.378,2.389,4.048,2.727c0.421,0.085,0.849,0.128,1.273,0.128  c3.016,0,5.641-2.148,6.241-5.109c0.339-1.67,0.007-3.371-0.934-4.79c-0.941-1.419-2.378-2.388-4.046-2.726  c-0.419-0.085-0.849-0.129-1.274-0.129c-1.144,0-2.229,0.311-3.171,0.856l-0.983-6.104c-0.072-0.454-0.395-0.829-0.832-0.971  c-0.438-0.142-0.918-0.026-1.243,0.299l-1.837,1.836l-7.345-7.345c1.474-1.93,2.339-4.211,2.515-6.647  c0.001-0.01,0.002-0.02,0.002-0.03h10.118v2.508c0,0.46,0.258,0.881,0.667,1.091c0.41,0.208,0.902,0.171,1.275-0.098l5.12-3.699  c0.167,0.754,0.468,1.481,0.908,2.145c1.185,1.787,3.174,2.854,5.32,2.854c1.253,0,2.47-0.367,3.517-1.062  C92.312,52.672,93.117,48.709,91.176,45.778z M71.51,23.862c0.37-1.823,1.985-3.146,3.842-3.146c0.261,0,0.525,0.027,0.787,0.08  c1.026,0.208,1.911,0.804,2.491,1.679c0.579,0.874,0.783,1.92,0.575,2.948c-0.422,2.079-2.518,3.498-4.627,3.067  c-1.028-0.208-1.913-0.805-2.493-1.679C71.506,25.937,71.302,24.89,71.51,23.862z M69.011,30.514l-0.377,2.34l-1.964-1.963  L69.011,30.514z M23.862,28.49c-1.027-0.208-1.912-0.805-2.492-1.679c-0.579-0.874-0.783-1.92-0.575-2.948  c0.37-1.823,1.985-3.146,3.842-3.146c0.261,0,0.525,0.027,0.786,0.08c1.027,0.208,1.912,0.804,2.492,1.679  c0.579,0.874,0.783,1.92,0.575,2.948C28.068,27.502,25.981,28.92,23.862,28.49z M30.908,33.463l-0.377-2.34l2.341,0.377  L30.908,33.463z M17.986,50.781c-0.209,1.027-0.805,1.913-1.679,2.492c-0.646,0.428-1.394,0.654-2.163,0.654  c-1.323,0-2.548-0.657-3.277-1.758c-1.196-1.804-0.7-4.245,1.104-5.441c0.646-0.428,1.394-0.654,2.163-0.654  c1.323,0,2.548,0.657,3.277,1.758C17.991,48.707,18.195,49.753,17.986,50.781z M24.625,51.906l-1.921-1.388l1.921-1.388V51.906z   M28.49,76.138c-0.422,2.079-2.507,3.492-4.629,3.066c-1.026-0.208-1.911-0.804-2.491-1.679c-0.579-0.873-0.783-1.92-0.575-2.948  c0.37-1.823,1.985-3.146,3.841-3.146c0.264,0,0.527,0.026,0.787,0.08c1.027,0.208,1.912,0.804,2.492,1.679  C28.494,74.063,28.698,75.11,28.49,76.138z M31.305,69.52l0.377-2.34l1.964,1.963L31.305,69.52z M75.352,71.431  c0.263,0,0.527,0.027,0.787,0.08c1.026,0.208,1.911,0.804,2.491,1.679c0.579,0.874,0.783,1.921,0.575,2.949  c-0.423,2.08-2.519,3.494-4.628,3.066c-1.027-0.208-1.912-0.804-2.492-1.679c-0.579-0.873-0.783-1.92-0.575-2.948  C71.88,72.754,73.496,71.431,75.352,71.431z M69.16,66.488l0.377,2.34l-2.341-0.377L69.16,66.488z M46.027,16.307  c-0.579-0.874-0.783-1.92-0.575-2.948c0.209-1.027,0.805-1.913,1.68-2.492c0.646-0.428,1.394-0.654,2.163-0.654  c1.323,0,2.548,0.657,3.277,1.757c0.579,0.875,0.783,1.922,0.575,2.949c-0.209,1.028-0.805,1.913-1.678,2.492  c-0.647,0.428-1.396,0.654-2.164,0.654C47.982,18.065,46.757,17.409,46.027,16.307z M49.657,23.054l1.388,1.921h-2.776  L49.657,23.054z M53.622,83.692c0.58,0.875,0.784,1.922,0.575,2.949c-0.209,1.028-0.805,1.913-1.679,2.492  c-0.646,0.428-1.394,0.654-2.163,0.654c-1.323,0-2.548-0.657-3.277-1.758c-0.58-0.875-0.784-1.921-0.575-2.949  c0.209-1.028,0.805-1.913,1.679-2.492c0.646-0.428,1.394-0.654,2.163-0.654C51.668,81.935,52.893,82.592,53.622,83.692z   M51.965,75.375l-1.389,1.921l-1.388-1.921H51.965z M60.012,50.729c-0.157,2.179-1.003,4.205-2.445,5.86  c-0.343,0.393-0.717,0.762-1.113,1.095c-1.657,1.395-3.673,2.203-5.828,2.336c-0.516,0.032-1.047,0.024-1.562-0.024  c-2.133-0.198-4.112-1.06-5.725-2.492c-0.394-0.349-0.758-0.727-1.085-1.123c-1.332-1.612-2.115-3.567-2.266-5.653  c-0.018-0.241-0.03-0.483-0.03-0.729c0-0.281,0.016-0.558,0.038-0.833c0.172-2.077,0.974-4.021,2.32-5.622  c0.33-0.393,0.699-0.767,1.095-1.113c1.6-1.394,3.554-2.234,5.652-2.429c0.309-0.029,0.62-0.045,0.937-0.045  c0.209,0,0.417,0.008,0.625,0.021c2.122,0.13,4.113,0.917,5.757,2.273c0.395,0.326,0.772,0.691,1.122,1.086  c1.456,1.638,2.32,3.653,2.5,5.828c0.022,0.275,0.038,0.552,0.038,0.833C60.042,50.245,60.029,50.488,60.012,50.729z M75.024,50.987  V48.21l1.922,1.388L75.024,50.987z M88.029,52.572c-0.646,0.428-1.394,0.654-2.163,0.654c-1.323,0-2.549-0.657-3.277-1.758  c-0.58-0.875-0.784-1.921-0.575-2.949c0.209-1.028,0.805-1.913,1.679-2.491c0.646-0.428,1.394-0.654,2.163-0.654  c1.323,0,2.549,0.657,3.277,1.758C90.328,48.936,89.833,51.376,88.029,52.572z"/></svg>