<svg xmlns:dc="http://purl.org/dc/elements/1.1/" xmlns:cc="http://creativecommons.org/ns#" xmlns:rdf="http://www.w3.org/1999/02/22-rdf-syntax-ns#" xmlns:svg="http://www.w3.org/2000/svg" xmlns="http://www.w3.org/2000/svg" xmlns:sodipodi="http://sodipodi.sourceforge.net/DTD/sodipodi-0.dtd" xmlns:inkscape="http://www.inkscape.org/namespaces/inkscape" version="1.1" x="0px" y="0px" viewBox="0 0 100 125"><g transform="translate(0,-952.36218)"><path style="text-indent:0;text-transform:none;direction:ltr;block-progression:tb;baseline-shift:baseline;color:#000000;enable-background:accumulate;" d="m 39.000198,958.36971 c -13.78343,0 -25,11.2166 -25,25 0,13.78353 11.21658,24.99999 25,24.99999 13.78342,0 25,-11.21646 25,-24.99999 0,-13.7834 -11.21657,-25 -25,-25 z m 0,4 c 11.62167,0 21,9.3784 21,21 0,11.62173 -9.37833,20.99999 -21,20.99999 -11.62167,0 -21,-9.37826 -21,-20.99999 0,-11.6216 9.37833,-21 21,-21 z m 2.71875,6 c -6.38764,0 -11.81305,4.2038 -13.84375,10 l -2.875,0 c -1.10395,0 -2,0.8954 -2,2 0,1.1045 0.89605,2 2,2 l 2.03125,0 c -0.0225,0.3375 -0.0312,0.6569 -0.0312,1 0,0.336 0.01,0.6692 0.0312,1 l -2.03125,0 c -1.10395,0 -2,0.8954 -2,2 0,1.1045 0.89605,2 2,2 l 2.84375,0 c 2.02024,5.81583 7.47347,10.00003 13.875,10.00003 4.59718,0 7.95479,-1.7925 10.71875,-4.625 a 1.9995197,2.0006256 0 1 0 -2.875,-2.78123 c -2.31024,2.36753 -4.14571,3.40623 -7.84375,3.40623 -4.16933,0 -7.79289,-2.41943 -9.5625,-6.00003 l 8.84375,0 c 1.10396,0 2,-0.8955 2,-2 0,-1.1046 -0.89604,-2 -2,-2 l -9.9375,0 c -0.0275,-0.3233 -0.0625,-0.6689 -0.0625,-1 0,-0.3403 0.0334,-0.668 0.0625,-1 l 9.9375,0 c 1.10396,0 2,-0.8955 2,-2 0,-1.1046 -0.89604,-2 -2,-2 l -8.84375,0 c 1.77417,-3.5667 5.40307,-6 9.5625,-6 3.69806,0 5.53352,1.0075 7.84375,3.375 a 1.9995093,2.0006152 0 1 0 2.875,-2.7812 c -2.76397,-2.8325 -6.12159,-4.5938 -10.71875,-4.5938 z m 32.28125,20 c -1.16287,0.01 -2.1062,1.137 -2.09375,2.0938 0.0491,1.0472 1.04643,1.95553 2.09375,1.90623 l 13.15625,0 -31.15625,31.15616 -12.28125,-12.2812 a 2.0001998,2.0001998 0 0 0 -1.90625,-0.9062 2.0001998,2.0001998 0 0 0 -1.1875,0.5624 l -34,32 a 2.0005674,2.0005674 0 1 0 2.75,2.9063 l 32.59375,-30.6563 12.34375,12.3438 a 2.0001998,2.0001998 0 0 0 3.09375,0.2812 l 32.593749,-32.59366 0,13.18746 c -0.0149,1.0566 0.94327,2.0312 2,2.0312 1.05673,0 2.01494,-0.9746 2,-2.0312 l 0,-17.99999 c -1e-4,-1.0472 -0.95283,-1.9999 -2,-2 l -17.999999,0 z" fill="#000000" fill-opacity="1" stroke="none" marker="none" visibility="visible" display="inline" overflow="visible"/></g></svg>