<?xml version="1.0" encoding="UTF-8"?>
<svg width="671px" height="180px" viewBox="0 0 671 180" version="1.1" xmlns="http://www.w3.org/2000/svg" xmlns:xlink="http://www.w3.org/1999/xlink">
    <!-- Generator: Sketch 52.5 (67469) - http://www.bohemiancoding.com/sketch -->
    <title>logo</title>
    <desc>Created with Sketch.</desc>
    <defs>
        <linearGradient x1="0%" y1="0%" x2="0%" y2="100%" id="linearGradient-1">
            <stop stop-color="#FEA493" offset="0%"></stop>
            <stop stop-color="#FD362B" offset="100%"></stop>
        </linearGradient>
        <linearGradient x1="0%" y1="0%" x2="0%" y2="100%" id="linearGradient-2">
            <stop stop-color="#03477F" offset="0%"></stop>
            <stop stop-color="#7FCDFE" offset="100%"></stop>
        </linearGradient>
        <linearGradient x1="0%" y1="0%" x2="0%" y2="100%" id="linearGradient-3">
            <stop stop-color="#1A6398" offset="0%"></stop>
            <stop stop-color="#B8F0FE" offset="100%"></stop>
        </linearGradient>
    </defs>
    <g id="Page-1" stroke="none" stroke-width="1" fill="none" fill-rule="evenodd">
        <g id="l">
            <g id="Group" transform="translate(0.659538, 0.377948)">
                <g>
                    <g>
                        <g transform="translate(0.000000, 0.872051)">
                            <g transform="translate(67.829901, 75.366557)" fill="url(#linearGradient-1)" fill-rule="nonzero" id="Shape">
                                <g>
                                    <path d="M1.38172021,22.1075233 L1.38172021,44.2150467 L4.77321526,44.2150467 L4.77321526,22.1075233 L1.38172021,22.1075233 Z M59.4139689,11.9330382 L59.4139689,44.2150467 L62.6798531,44.2150467 L62.6798531,11.9330382 L59.4139689,11.9330382 Z M125.610928,1.00488742 L125.610928,44.2150467 L129.002423,44.2150467 L129.002423,1.00488742 L125.610928,1.00488742 Z"></path>
                                </g>
                            </g>
                            <g transform="translate(0.000000, 110.537617)" fill="url(#linearGradient-2)" id="Path">
                                <g>
                                    <path d="M238.409541,65.1920716 C247.955972,48.862651 252.184873,35.2966708 251.096245,24.494131 C249.337692,7.82974784 234.599343,0 206.881198,1.00488742 C223.964285,6.53176826 201.019355,17.9204924 138.04641,35.1710598 C81.4377516,50.6630743 35.4222817,60.6700782 0,65.1920716 L201.228707,65.1920716 C214.459724,52.7147194 223.629322,41.7865687 228.7375,32.4076194 C235.855452,19.3440829 234.348121,10.425707 224.215506,5.65249176 C236.190415,9.00211651 240.251835,17.4180487 236.399766,30.9002883 C233.720067,40.2792376 227.35578,51.709832 217.306905,65.1920716 L238.409541,65.1920716 Z"></path>
                                </g>
                            </g>
                            <g transform="translate(0.000000, 105.513180)" fill="url(#linearGradient-3)" id="Path">
                                <g>
                                    <path d="M134.780526,0.502443712 C161.828746,4.68947464 152.784759,10.3419664 107.648565,17.459919 C70.6352118,23.3217623 35.464152,27.1319604 2.13538578,28.8905134 L2.13538578,38.0601112 C23.4892435,35.8828551 44.4243982,33.2031553 64.9408498,30.0210118 C96.4273224,25.1640559 121.549508,19.8465266 140.307407,14.0684239 C126.908908,20.5164516 103.629016,27.2575714 70.4677306,34.2917833 C49.0301322,38.8975174 26.2526839,43.042678 2.13538578,46.7272652 L2.13538578,63.1822968 C34.375524,58.2416003 65.3595529,52.0447945 95.0874725,44.5918794 C123.643023,37.3064456 146.043639,30.2303633 162.289319,23.3636326 C179.037443,16.1619394 185.736692,10.551318 182.387067,6.53176826 C178.70248,1.92603423 162.833633,-0.0837406187 134.780526,0.502443712 Z"></path>
                                </g>
                            </g>
                            <g fill="url(#linearGradient-1)" id="Path">
                                <g>
                                    <path d="M251.221856,65.3176826 L251.221856,0 C230.537923,32.5751007 182.805771,60.0420236 108.025398,82.4007688 C70.7608228,93.6220117 35.464152,101.49363 2.13538578,106.015623 L29.1417353,104.508292 C51.4167399,103.084702 73.3149116,101.200538 94.8362506,98.8558003 C163.75478,90.9841822 215.883315,79.8048096 251.221856,65.3176826 Z"></path>
                                </g>
                            </g>
                        </g>
                    </g>
                    <g transform="translate(297.000000, 50.210687)" fill="#000000" fill-rule="nonzero" id="Shape">
                        <g transform="translate(0.961675, 0.784003)">
                            <path d="M28.8405222,101.331569 C28.8405222,101.331569 4.67684144,101.331569 4.67684144,101.331569 C3.50763108,101.331569 3.11789429,100.941832 3.11789429,99.7726219 C3.11789429,99.7726219 3.11789429,96.6547275 3.11789429,96.6547275 C3.11789429,95.8752539 3.50763108,95.0957802 4.67684144,95.0957802 C4.67684144,95.0957802 28.4507854,95.0957802 28.4507854,95.0957802 C37.0249947,95.0957802 40.9223626,91.9778858 40.9223626,85.3523601 C40.9223626,85.3523601 40.9223626,81.8447289 40.9223626,81.8447289 C40.9223626,75.60894 38.1942051,72.1013088 33.1276268,70.1526248 C33.1276268,70.1526248 15.5894715,63.1373623 15.5894715,63.1373623 C10.91263,61.1886783 7.40499894,59.2399943 5.45631501,56.9015734 C3.50763108,54.5631526 2.33842072,51.0555214 2.33842072,46.3786797 C2.33842072,35.4660492 8.18447251,29.6199971 20.2663129,29.6199971 C20.2663129,29.6199971 43.2607833,29.6199971 43.2607833,29.6199971 C44.4299936,29.6199971 44.8197304,30.0097339 44.8197304,31.1789443 C44.8197304,31.1789443 44.8197304,34.6865756 44.8197304,34.6865756 C44.8197304,35.4660492 44.4299936,35.855786 43.2607833,35.855786 C43.2607833,35.855786 21.0457865,35.855786 21.0457865,35.855786 C17.1484186,35.855786 14.4202611,37.0249964 12.4715772,38.5839436 C10.5228932,40.1428908 9.74341966,42.0915749 9.74341966,44.4299957 C9.74341966,44.4299957 9.74341966,47.5478901 9.74341966,47.5478901 C9.74341966,50.2760478 10.1331564,52.2247318 11.6921036,53.783679 C13.2510507,55.3426262 15.1997347,56.5118366 18.317629,57.681047 C18.317629,57.681047 35.8557843,64.6963095 35.8557843,64.6963095 C40.5326258,66.2552567 44.0402569,68.5936776 45.599204,71.711572 C47.1581511,74.8294664 48.3273615,79.5063081 48.3273615,84.9626233 C48.3273615,90.4189386 46.7684144,94.7060434 43.6505201,97.4342011 C40.5326258,100.162359 35.4660476,101.331569 28.8405222,101.331569 C28.8405222,101.331569 28.8405222,101.331569 28.8405222,101.331569 M71.7115687,101.331569 C71.7115687,101.331569 67.8142008,101.331569 67.8142008,101.331569 C67.0347272,101.331569 66.2552537,100.941832 66.2552537,99.7726219 C66.2552537,99.7726219 66.2552537,4.28710485 66.2552537,4.28710485 C66.2552537,3.11789443 67.0347272,2.72815763 67.8142008,2.72815763 C67.8142008,2.72815763 71.7115687,2.72815763 71.7115687,2.72815763 C72.880779,2.72815763 73.2705158,3.11789443 73.2705158,4.28710485 C73.2705158,4.28710485 73.2705158,37.0249964 73.2705158,37.0249964 C73.2705158,37.0249964 73.6602526,37.0249964 73.6602526,37.0249964 C76.3884101,32.3481548 81.4549883,29.6199971 88.4702505,29.6199971 C88.4702505,29.6199971 97.8239334,29.6199971 97.8239334,29.6199971 C103.669985,29.6199971 108.346827,31.5686811 111.854458,35.0763124 C115.362089,38.5839436 116.921036,43.6505221 116.921036,49.8863109 C116.921036,49.8863109 116.921036,99.7726219 116.921036,99.7726219 C116.921036,100.941832 116.531299,101.331569 115.751826,101.331569 C115.751826,101.331569 111.464721,101.331569 111.464721,101.331569 C110.295511,101.331569 109.905774,100.941832 109.905774,99.7726219 C109.905774,99.7726219 109.905774,49.8863109 109.905774,49.8863109 C109.905774,45.5992061 109.1263,42.0915749 106.787879,39.753154 C104.449459,37.4147332 100.941828,36.2455228 96.654723,36.2455228 C96.654723,36.2455228 87.6907769,36.2455228 87.6907769,36.2455228 C83.0139355,36.2455228 79.8960412,37.4147332 77.1678837,39.753154 C74.4397262,42.0915749 73.2705158,45.5992061 73.2705158,49.8863109 C73.2705158,49.8863109 73.2705158,99.7726219 73.2705158,99.7726219 C73.2705158,100.941832 72.880779,101.331569 71.7115687,101.331569 C71.7115687,101.331569 71.7115687,101.331569 71.7115687,101.331569 M137.966822,17.927893 C137.966822,17.927893 137.966822,4.67684165 137.966822,4.67684165 C137.966822,3.50763124 138.356559,3.11789443 139.136033,3.11789443 C139.136033,3.11789443 143.423137,3.11789443 143.423137,3.11789443 C144.202611,3.11789443 144.982085,3.50763124 144.982085,4.67684165 C144.982085,4.67684165 144.982085,17.927893 144.982085,17.927893 C144.982085,19.0971034 144.202611,19.4868402 143.423137,19.4868402 C143.423137,19.4868402 139.136033,19.4868402 139.136033,19.4868402 C138.356559,19.4868402 137.966822,19.0971034 137.966822,17.927893 C137.966822,17.927893 137.966822,17.927893 137.966822,17.927893 M137.966822,99.7726219 C137.966822,99.7726219 137.966822,31.5686811 137.966822,31.5686811 C137.966822,30.3994707 138.356559,29.6199971 139.136033,29.6199971 C139.136033,29.6199971 143.423137,29.6199971 143.423137,29.6199971 C144.592348,29.6199971 144.982085,30.3994707 144.982085,31.5686811 C144.982085,31.5686811 144.982085,99.7726219 144.982085,99.7726219 C144.982085,100.941832 144.202611,101.331569 143.423137,101.331569 C143.423137,101.331569 139.136033,101.331569 139.136033,101.331569 C138.356559,101.331569 137.966822,100.941832 137.966822,99.7726219 C137.966822,99.7726219 137.966822,99.7726219 137.966822,99.7726219 M171.873923,122.377357 C171.873923,122.377357 167.976555,122.377357 167.976555,122.377357 C167.197081,122.377357 166.417608,121.98762 166.417608,120.818409 C166.417608,120.818409 166.417608,31.5686811 166.417608,31.5686811 C166.417608,30.3994707 167.197081,29.6199971 167.976555,29.6199971 C167.976555,29.6199971 171.873923,29.6199971 171.873923,29.6199971 C173.043133,29.6199971 173.43287,30.3994707 173.43287,31.5686811 C173.43287,31.5686811 173.43287,37.0249964 173.43287,37.0249964 C173.43287,37.0249964 173.822607,37.0249964 173.822607,37.0249964 C176.550764,32.3481548 181.617342,29.6199971 188.632605,29.6199971 C188.632605,29.6199971 197.986287,29.6199971 197.986287,29.6199971 C203.832339,29.6199971 208.898917,31.5686811 212.406549,35.0763124 C215.91418,38.5839436 217.473127,43.6505221 217.473127,49.8863109 C217.473127,49.8863109 217.473127,81.4549921 217.473127,81.4549921 C217.473127,87.690781 215.91418,92.3676226 212.406549,95.8752539 C208.898917,99.3828851 203.832339,101.331569 197.986287,101.331569 C197.986287,101.331569 188.632605,101.331569 188.632605,101.331569 C181.617342,101.331569 176.550764,98.6034115 173.822607,93.9265698 C173.822607,93.9265698 173.43287,93.9265698 173.43287,93.9265698 C173.43287,93.9265698 173.43287,120.818409 173.43287,120.818409 C173.43287,121.98762 173.043133,122.377357 171.873923,122.377357 C171.873923,122.377357 171.873923,122.377357 171.873923,122.377357 M187.853131,95.0957802 C187.853131,95.0957802 197.206814,95.0957802 197.206814,95.0957802 C201.493919,95.0957802 204.611813,93.9265698 206.950234,91.588149 C209.288654,89.2497282 210.457865,85.7420969 210.457865,81.0652553 C210.457865,81.0652553 210.457865,49.8863109 210.457865,49.8863109 C210.457865,45.2094693 209.288654,42.0915749 206.950234,39.753154 C204.611813,37.4147332 201.493919,36.2455228 197.206814,36.2455228 C197.206814,36.2455228 187.853131,36.2455228 187.853131,36.2455228 C183.17629,36.2455228 180.058395,37.4147332 177.330238,39.753154 C174.60208,42.0915749 173.43287,45.5992061 173.43287,49.8863109 C173.43287,49.8863109 173.43287,81.4549921 173.43287,81.4549921 C173.43287,85.7420969 174.60208,89.2497282 177.330238,91.588149 C180.058395,93.9265698 183.17629,95.0957802 187.853131,95.0957802 C187.853131,95.0957802 187.853131,95.0957802 187.853131,95.0957802 M257.226279,95.0957802 C257.226279,95.0957802 273.205487,95.0957802 273.205487,95.0957802 C277.492592,95.0957802 280.610486,93.9265698 282.948907,91.588149 C285.287328,89.2497282 286.456538,85.7420969 286.456538,81.0652553 C286.456538,81.0652553 286.456538,31.1789443 286.456538,31.1789443 C286.456538,26.5021027 285.287328,23.3842083 282.948907,21.0457874 C280.610486,18.7073666 277.492592,17.5381562 273.205487,17.5381562 C273.205487,17.5381562 257.226279,17.5381562 257.226279,17.5381562 C252.939174,17.5381562 249.82128,18.7073666 247.482859,21.0457874 C245.144439,23.3842083 243.975228,26.8918395 243.975228,31.1789443 C243.975228,31.1789443 243.975228,81.0652553 243.975228,81.0652553 C243.975228,85.3523601 245.144439,88.8599914 247.482859,91.1984122 C249.82128,93.536833 252.939174,95.0957802 257.226279,95.0957802 C257.226279,95.0957802 257.226279,95.0957802 257.226279,95.0957802 M273.984961,101.331569 C273.984961,101.331569 256.446805,101.331569 256.446805,101.331569 C250.211017,101.331569 245.534175,99.3828851 242.026544,95.8752539 C238.518913,92.3676226 236.959966,87.690781 236.959966,81.4549921 C236.959966,81.4549921 236.959966,31.1789443 236.959966,31.1789443 C236.959966,24.9431555 238.518913,19.876577 242.026544,16.3689458 C245.534175,12.8613145 250.211017,11.3023673 256.446805,11.3023673 C256.446805,11.3023673 273.984961,11.3023673 273.984961,11.3023673 C280.220749,11.3023673 284.897591,12.8613145 288.405222,16.3689458 C291.912853,19.876577 293.4718,24.9431555 293.4718,31.1789443 C293.4718,31.1789443 293.4718,81.4549921 293.4718,81.4549921 C293.4718,87.690781 291.912853,92.3676226 288.405222,95.8752539 C284.897591,99.3828851 280.220749,101.331569 273.984961,101.331569 C273.984961,101.331569 273.984961,101.331569 273.984961,101.331569 M315.29706,81.4549921 C315.29706,81.4549921 315.29706,76.3884136 315.29706,76.3884136 C315.29706,75.2192032 315.686797,74.8294664 316.856007,74.8294664 C316.856007,74.8294664 321.143112,74.8294664 321.143112,74.8294664 C322.312322,74.8294664 322.702059,75.2192032 322.702059,76.3884136 C322.702059,76.3884136 322.702059,81.0652553 322.702059,81.0652553 C322.702059,90.4189386 326.989164,95.0957802 335.95311,95.0957802 C335.95311,95.0957802 350.763108,95.0957802 350.763108,95.0957802 C359.727054,95.0957802 364.403895,90.0292018 364.403895,80.6755185 C364.403895,80.6755185 364.403895,74.8294664 364.403895,74.8294664 C364.403895,70.5423616 362.844948,67.4244671 359.337317,65.0860463 C355.829686,62.7476255 351.932318,61.5784151 347.255477,60.4092047 C340.240214,58.8502574 340.240214,58.4605206 332.835216,56.9015734 C328.158374,55.732363 323.871269,53.783679 320.363638,50.6657846 C316.856007,47.5478901 315.29706,43.6505221 315.29706,38.5839436 C315.29706,38.5839436 315.29706,31.1789443 315.29706,31.1789443 C315.29706,24.9431555 317.245744,19.876577 320.753375,16.3689458 C324.261006,12.8613145 328.937848,11.3023673 335.173636,11.3023673 C335.173636,11.3023673 351.542581,11.3023673 351.542581,11.3023673 C357.77837,11.3023673 362.455211,12.8613145 365.962842,16.3689458 C369.470473,19.876577 371.029421,24.9431555 371.029421,31.1789443 C371.029421,31.1789443 371.029421,35.0763124 371.029421,35.0763124 C371.029421,36.2455228 370.639684,36.6352596 369.470473,36.6352596 C369.470473,36.6352596 365.573106,36.6352596 365.573106,36.6352596 C364.403895,36.6352596 364.014158,36.2455228 364.014158,35.0763124 C364.014158,35.0763124 364.014158,31.5686811 364.014158,31.5686811 C364.014158,22.2149978 359.337317,17.5381562 350.373371,17.5381562 C350.373371,17.5381562 335.95311,17.5381562 335.95311,17.5381562 C326.989164,17.5381562 322.702059,22.2149978 322.702059,31.5686811 C322.702059,31.5686811 322.702059,38.5839436 322.702059,38.5839436 C322.702059,45.2094693 328.158374,49.4965741 339.850478,51.834995 C344.527319,52.6144686 349.593897,53.783679 354.270739,54.9528894 C358.94758,56.1220998 362.844948,58.4605206 366.352579,61.5784151 C369.86021,64.6963095 371.419157,68.9834144 371.419157,74.4397296 C371.419157,74.4397296 371.419157,81.4549921 371.419157,81.4549921 C371.419157,87.690781 369.470473,92.3676226 365.962842,95.8752539 C362.455211,99.3828851 357.77837,101.331569 351.542581,101.331569 C351.542581,101.331569 335.173636,101.331569 335.173636,101.331569 C328.937848,101.331569 324.261006,99.3828851 320.753375,95.8752539 C317.245744,92.3676226 315.29706,87.690781 315.29706,81.4549921 C315.29706,81.4549921 315.29706,81.4549921 315.29706,81.4549921"></path>
                        </g>
                    </g>
                </g>
            </g>
        </g>
    </g>
</svg>